<?xml version="1.0" standalone="no"?>
<!DOCTYPE svg PUBLIC "-//W3C//DTD SVG 20010904//EN"
 "http://www.w3.org/TR/2001/REC-SVG-20010904/DTD/svg10.dtd">
<svg version="1.0" xmlns="http://www.w3.org/2000/svg"
 width="580.000000pt" height="580.000000pt" viewBox="0 0 580.000000 580.000000"
 preserveAspectRatio="xMidYMid meet">
<metadata>
Created by potrace 1.11, written by Peter Selinger 2001-2013
</metadata>
<g transform="translate(0.000000,580.000000) scale(0.100000,-0.100000)"
fill="#000000" stroke="none">
<path d="M903 3671 c-38 -15 -124 -91 -131 -116 -14 -57 -20 -135 -11 -141 5
-3 5 -12 1 -20 -5 -9 -6 -35 -2 -60 4 -24 4 -44 1 -44 -3 0 -5 -38 -4 -84 l1
-84 -76 2 c-45 1 -80 -2 -84 -8 -5 -7 -8 -7 -8 -1 0 12 -102 11 -121 -1 -7 -4
-10 -3 -6 2 6 10 -109 11 -119 1 -3 -3 -17 -2 -30 3 -16 6 -24 6 -24 -1 0 -6
-3 -8 -8 -6 -4 3 -7 -60 -7 -139 l0 -144 242 0 c219 0 265 -4 246 -23 -8 -9
-6 -193 2 -207 3 -5 3 -10 -2 -10 -8 0 -8 -126 0 -179 3 -15 10 -37 16 -48 5
-11 7 -24 3 -28 -4 -3 -1 -5 7 -3 8 2 20 -7 26 -20 7 -13 16 -24 21 -25 5 -1
17 -8 27 -17 10 -8 21 -15 25 -15 4 -1 16 -5 27 -11 13 -7 129 -10 335 -8 372
4 350 3 350 15 0 6 4 8 8 5 10 -6 91 69 110 101 6 13 12 31 12 42 0 10 7 24
15 31 17 14 85 20 85 7 0 -5 5 -5 10 -2 9 6 112 9 135 5 6 -1 15 -1 20 0 24 5
134 2 144 -4 6 -4 11 -4 11 1 0 4 36 8 80 8 44 0 80 -3 80 -7 0 -4 12 -3 28 1
15 4 39 5 53 1 15 -4 31 -5 37 -1 6 4 30 5 54 3 24 -2 57 -3 73 -3 17 1 48 1
70 1 58 -1 55 -1 113 2 28 2 52 -1 52 -5 0 -5 5 -5 10 -2 9 6 112 9 135 5 6
-1 15 -1 20 0 24 5 134 2 144 -4 6 -4 11 -4 11 1 0 4 20 8 45 8 25 0 45 -4 45
-8 0 -4 8 -4 18 0 9 5 28 8 42 6 44 -4 64 -4 118 -1 28 2 52 -1 52 -5 0 -5 5
-5 10 -2 9 6 112 9 135 5 6 -1 15 -1 20 0 24 5 134 2 144 -4 6 -4 11 -4 11 1
0 7 36 8 190 2 25 0 50 0 55 1 28 6 46 -3 60 -30 9 -16 13 -30 9 -30 -4 0 -1
-7 6 -15 7 -8 10 -15 6 -15 -4 0 17 -22 45 -50 28 -27 55 -47 60 -44 5 3 9 1
9 -4 0 -13 -2 -13 345 -13 346 0 355 0 355 13 0 5 4 7 9 3 5 -3 16 2 24 10 9
8 21 15 27 15 6 0 9 4 5 9 -3 6 3 14 13 20 10 5 28 29 41 53 21 41 22 58 24
253 l2 210 246 5 245 5 0 75 c-1 41 -4 80 -8 86 -4 6 -4 14 0 18 3 4 7 29 7
57 0 42 -2 49 -20 50 -102 5 -175 2 -175 -6 0 -7 -3 -7 -8 0 -4 6 -47 10 -97
10 -49 0 -93 -4 -97 -10 -5 -6 -8 -6 -8 1 0 11 -40 11 -58 0 -25 -15 -32 25
-29 162 1 78 -2 142 -6 142 -5 0 -5 6 -1 12 17 27 -14 158 -37 158 -4 0 -11 9
-14 20 -3 11 -14 20 -22 20 -9 0 -13 3 -10 7 6 5 -34 31 -58 37 -5 2 -17 6
-25 9 -8 4 -160 5 -338 4 -257 -2 -324 -5 -331 -15 -5 -8 -11 -13 -15 -13 -20
3 -39 0 -33 -5 8 -8 -25 -44 -41 -44 -7 0 -10 -4 -7 -10 3 -5 2 -10 -2 -10 -5
0 -16 -17 -25 -39 l-17 -39 -1157 1 -1156 0 -14 34 c-20 46 -75 102 -121 123
-33 15 -77 17 -348 17 -266 1 -316 -2 -352 -16z"/>
</g>
</svg>
